<svg xmlns="http://www.w3.org/2000/svg" viewBox="0 0 849.83 587.96"><defs><style>.cls-1{fill:#5c37b9;}</style></defs><title>THE NEW SVG</title><g id="Layer_2" data-name="Layer 2"><g id="Layer_1-2" data-name="Layer 1"><path class="cls-1" d="M555.85,588a18.68,18.68,0,0,1-13.32-5.52L280.43,320.35l21.22-21.21,254.2,254.2L815.2,294,555.85,34.62,435.52,155,414.3,133.74,542.52,5.51a18.86,18.86,0,0,1,26.65,0l195,195,.38.37,21.68,21.69,58.09,58.09a18.82,18.82,0,0,1,0,26.63L569.17,582.44A18.71,18.71,0,0,1,555.85,588Zm267.23-286.1,0,.05Z"/><path class="cls-1" d="M294,588a18.68,18.68,0,0,1-13.32-5.52L5.5,307.29a18.87,18.87,0,0,1,0-26.63L280.65,5.51a18.85,18.85,0,0,1,26.64,0L578.15,276.37l-21.21,21.21-263-263L34.61,294,294,553.34,414.31,433l21.21,21.21L307.29,582.44A18.71,18.71,0,0,1,294,588Z"/><path class="cls-1" d="M301.65,299.14l-21.21,21.21c-6.13-6.13-6.29-15.9-.45-21.74S295.52,293,301.65,299.14Z"/><polygon class="cls-1" points="299.52 297.59 278.86 318.33 286.38 326.28 307.3 305.37 299.52 297.59"/><rect class="cls-1" x="431.79" y="119.95" width="31.18" height="365.74" rx="0.5" transform="translate(-83.1 405.04) rotate(-45)"/><rect class="cls-1" x="644.02" y="178.66" width="31.18" height="296.94" rx="2" transform="translate(894.7 1024.86) rotate(-135)"/><rect class="cls-1" x="243.68" y="129.67" width="31.18" height="178.53" rx="2" transform="translate(287.78 557.08) rotate(-135)"/><rect class="cls-1" x="185.95" y="270.04" width="31.18" height="74.4" rx="2" transform="translate(-158.22 232.49) rotate(-45)"/><circle class="cls-1" cx="509.57" cy="228.64" r="28.45"/><circle class="cls-1" cx="538.19" cy="258.01" r="22.22"/><circle class="cls-1" cx="238.07" cy="343.78" r="28.49"/><circle class="cls-1" cx="559.24" cy="279.35" r="20.56"/><circle class="cls-1" cx="586.3" cy="305.73" r="8.73"/></g></g></svg>