<svg xmlns="http://www.w3.org/2000/svg" viewBox="0 0 849.84 587.97"><defs><style>.cls-1{fill:none;stroke:#fff;stroke-miterlimit:10;stroke-width:30px;}.cls-2{fill:#fff;}</style></defs><title>Asset 3</title><g id="Layer_2" data-name="Layer 2"><g id="Layer_1-2" data-name="Layer 1"><path class="cls-1" d="M424.93,144.36,553.15,16.13a3.84,3.84,0,0,1,5.43,0L753.92,211.48h0l8.3,8.31h0l4.73,4.73,1.59,1.6h0l4.73,4.73,2,2s0,0,0,0l58.42,58.42a3.83,3.83,0,0,1,0,5.42L558.58,571.85a3.84,3.84,0,0,1-5.43,0L424.93,443.63,305.69,324.39l-14.63-14.63"/><path class="cls-1" d="M567.56,287l-59-59-83.67-83.67L296.7,16.13a3.84,3.84,0,0,0-5.43,0L16.12,291.28a3.84,3.84,0,0,0,0,5.42L291.27,571.85a3.84,3.84,0,0,0,5.43,0L424.93,443.63"/><rect class="cls-2" x="431.8" y="119.96" width="31.18" height="365.74" rx="0.5" transform="translate(-83.1 405.05) rotate(-45)"/><rect class="cls-2" x="644.04" y="178.67" width="31.18" height="296.94" rx="2" transform="translate(894.72 1024.89) rotate(-135)"/><rect class="cls-2" x="243.69" y="129.68" width="31.18" height="178.53" rx="2" transform="translate(287.8 557.11) rotate(-135)"/><rect class="cls-2" x="185.96" y="270.05" width="31.18" height="74.4" rx="2" transform="translate(-158.23 232.51) rotate(-45)"/><circle class="cls-2" cx="509.58" cy="228.65" r="28.45"/><circle class="cls-2" cx="538.2" cy="258.02" r="22.22"/><circle class="cls-2" cx="238.09" cy="343.79" r="28.49"/><circle class="cls-2" cx="559.25" cy="279.36" r="20.56"/><circle class="cls-2" cx="586.31" cy="305.74" r="8.73"/></g></g></svg>